<svg xmlns="http://www.w3.org/2000/svg" viewBox="0 0 40 40" width="40" height="40" fill="none">
  <rect width="40" height="40" rx="12" fill="#4a7c59"/>
  <path d="M12 24C12 17.3726 17.3726 12 24 12C30.6274 12 36 17.3726 36 24V28H12V24Z" fill="#e8f0eb" opacity="0.9"/>
  <circle cx="20" cy="17" r="2.5" fill="#4a7c59"/>
  <circle cx="28" cy="17" r="2.5" fill="#4a7c59"/>
  <path d="M18 28L18 19C18 16 21 14 24 14C27 14 30 16 30 19L30 28" stroke="#33593e" stroke-width="2" stroke-linecap="round"/>
  <path d="M24 5L25.5 9L29.5 10.5L25.5 12L24 16L22.5 12L18.5 10.5L22.5 9L24 5Z" fill="#f6bd60"/>
</svg>
